<?xml version="1.0" encoding="utf-8"?>
<!-- Generator: Adobe Illustrator 25.2.3, SVG Export Plug-In . SVG Version: 6.00 Build 0)  -->
<svg version="1.1" id="Layer_1" xmlns="http://www.w3.org/2000/svg" xmlns:xlink="http://www.w3.org/1999/xlink" x="0px" y="0px"
	 width="160.5px" height="120.6px" viewBox="0 0 160.5 120.6" style="enable-background:new 0 0 160.5 120.6;" xml:space="preserve"
	>
<style type="text/css">
	.st0{fill:#FFFFFF;}
	.st1{fill:#231F20;}
</style>
<path class="st0" d="M32.1,11.6c3.3,3.3,5,7.3,5,12c0,3.9-1.2,7.3-3.6,10.4l3,3c0.4,0.4,0.6,0.9,0.6,1.5c0,0.6-0.2,1.1-0.6,1.5
	c-0.4,0.4-0.9,0.6-1.5,0.6c-0.6,0-1.1-0.2-1.5-0.6c-0.7-0.7-1.7-1.7-3-3c-1.3-1.3-2.3-2.3-3-3c1.7-1.2,3-2.6,4-4.4
	c1-1.9,1.5-3.8,1.5-6c0-3.5-1.2-6.5-3.7-9c-2.5-2.5-5.5-3.7-9-3.7s-6.5,1.2-9,3.7c-2.5,2.5-3.7,5.5-3.7,9s1.2,6.5,3.7,9
	c2.5,2.5,5.5,3.7,9,3.7c1,0,2-0.1,3.1-0.4l3.3,3.4c-2.1,0.9-4.2,1.3-6.4,1.3c-4.7,0-8.7-1.7-12-5c-3.3-3.3-5-7.3-5-12
	c0-4.7,1.7-8.7,5-12c3.3-3.3,7.3-5,12-5S28.8,8.3,32.1,11.6z M26.1,17.6c-1.7-1.6-3.7-2.5-6-2.5c-2.3,0-4.3,0.8-6,2.5
	c-1.7,1.7-2.5,3.7-2.5,6c0,2.3,0.8,4.3,2.5,6c1.7,1.6,3.7,2.5,6,2.5c2.3,0,4.3-0.8,6-2.5c1.6-1.7,2.5-3.7,2.5-6
	C28.6,21.3,27.7,19.3,26.1,17.6z M23.1,26.6c-0.8,0.8-1.8,1.2-3,1.2c-1.2,0-2.2-0.4-3-1.2c-0.8-0.8-1.2-1.8-1.2-3
	c0-1.2,0.4-2.2,1.2-3c0.8-0.8,1.8-1.2,3-1.2c1.2,0,2.2,0.4,3,1.2c0.8,0.8,1.2,1.8,1.2,3C24.3,24.8,23.9,25.8,23.1,26.6z M55.6,30
	c0,0.6-0.2,1.1-0.6,1.5c-0.4,0.4-0.9,0.6-1.5,0.6c-0.6,0-1.1-0.2-1.5-0.6c-0.4-0.4-0.6-0.9-0.6-1.5V10.9H47V30
	c0,1.8,0.6,3.3,1.9,4.5s2.8,1.9,4.5,1.9c1.8,0,3.3-0.6,4.5-1.9c1.2-1.2,1.9-2.8,1.9-4.5V8.8c0-0.6,0.2-1.1,0.6-1.5
	c0.4-0.4,0.9-0.6,1.5-0.6c0.6,0,1.1,0.2,1.5,0.6c0.4,0.4,0.6,0.9,0.6,1.5V30c0,2.9-1,5.4-3.1,7.5c-2.1,2.1-4.6,3.1-7.5,3.1
	c-3,0-5.5-1-7.6-3.1c-2.1-2.1-3.1-4.6-3.1-7.5V8.8c0-0.6,0.2-1.1,0.6-1.5c0.4-0.4,0.9-0.6,1.5-0.6h8.5c0.6,0,1.1,0.2,1.5,0.6
	c0.4,0.4,0.6,0.9,0.6,1.5V30z M74.9,10.9v25.5h14.9c0.6,0,1.1,0.2,1.5,0.6c0.4,0.4,0.6,0.9,0.6,1.5c0,0.6-0.2,1.1-0.6,1.5
	c-0.4,0.4-0.9,0.6-1.5,0.6h-17c-0.6,0-1.1-0.2-1.5-0.6c-0.4-0.4-0.6-0.9-0.6-1.5V8.8c0-0.6,0.2-1.1,0.6-1.5c0.4-0.4,0.9-0.6,1.5-0.6
	h17c0.6,0,1.1,0.2,1.5,0.6c0.4,0.4,0.6,0.9,0.6,1.5s-0.2,1.1-0.6,1.5c-0.4,0.4-0.9,0.6-1.5,0.6H74.9z M83.5,21.5
	c0,0.6-0.2,1.1-0.6,1.5c-0.4,0.4-0.9,0.6-1.5,0.6c-0.6,0-1.1-0.2-1.5-0.6c-0.4-0.4-0.6-0.9-0.6-1.5v-4.1c0-0.6,0.2-1.1,0.6-1.6
	c0.4-0.5,0.9-0.7,1.5-0.7h8.5c0.6,0,1.1,0.2,1.5,0.6c0.4,0.4,0.6,0.9,0.6,1.5c0,0.6-0.2,1.1-0.6,1.5c-0.4,0.4-0.9,0.6-1.5,0.6h-6.4
	V21.5z M86.3,25.8c0-0.6,0.2-1.1,0.6-1.5c0.4-0.4,0.9-0.6,1.5-0.6c0.6,0,1.1,0.2,1.5,0.6c0.4,0.4,0.6,0.9,0.6,1.5v4.1
	c0,0.6-0.2,1.1-0.6,1.6c-0.4,0.5-0.9,0.7-1.5,0.7h-8.5c-0.6,0-1.1-0.2-1.5-0.6c-0.4-0.4-0.6-0.9-0.6-1.5c0-0.6,0.2-1.1,0.6-1.5
	c0.4-0.4,0.9-0.6,1.5-0.6h6.4V25.8z M103.5,10.9v25.5h14.9c0.6,0,1.1,0.2,1.5,0.6c0.4,0.4,0.6,0.9,0.6,1.5c0,0.6-0.2,1.1-0.6,1.5
	c-0.4,0.4-0.9,0.6-1.5,0.6h-17c-0.6,0-1.1-0.2-1.5-0.6c-0.4-0.4-0.6-0.9-0.6-1.5V8.8c0-0.6,0.2-1.1,0.6-1.5c0.4-0.4,0.9-0.6,1.5-0.6
	h17c0.6,0,1.1,0.2,1.5,0.6c0.4,0.4,0.6,0.9,0.6,1.5s-0.2,1.1-0.6,1.5c-0.4,0.4-0.9,0.6-1.5,0.6H103.5z M112,21.5
	c0,0.6-0.2,1.1-0.6,1.5c-0.4,0.4-0.9,0.6-1.5,0.6c-0.6,0-1.1-0.2-1.5-0.6c-0.4-0.4-0.6-0.9-0.6-1.5v-4.1c0-0.6,0.2-1.1,0.6-1.6
	c0.4-0.5,0.9-0.7,1.5-0.7h8.5c0.6,0,1.1,0.2,1.5,0.6c0.4,0.4,0.6,0.9,0.6,1.5c0,0.6-0.2,1.1-0.6,1.5c-0.4,0.4-0.9,0.6-1.5,0.6H112
	V21.5z M114.8,25.8c0-0.6,0.2-1.1,0.6-1.5c0.4-0.4,0.9-0.6,1.5-0.6c0.6,0,1.1,0.2,1.5,0.6c0.4,0.4,0.6,0.9,0.6,1.5v4.1
	c0,0.6-0.2,1.1-0.6,1.6c-0.4,0.5-0.9,0.7-1.5,0.7h-8.5c-0.6,0-1.1-0.2-1.5-0.6c-0.4-0.4-0.6-0.9-0.6-1.5c0-0.6,0.2-1.1,0.6-1.5
	c0.4-0.4,0.9-0.6,1.5-0.6h6.4V25.8z M132,10.9v27.7c0,0.6-0.2,1.1-0.6,1.5c-0.4,0.4-0.9,0.6-1.5,0.6s-1.1-0.2-1.5-0.6
	c-0.4-0.4-0.6-0.9-0.6-1.5V8.8c0-0.6,0.2-1.1,0.6-1.5c0.4-0.4,0.9-0.6,1.5-0.6h14.9c2.9,0,5.4,1.1,7.5,3.3c2.1,2.1,3.1,4.6,3.1,7.4
	c0,2.2-0.5,4.1-1.5,5.8c-1,1.7-2.3,2.9-4.1,3.8l4.4,10.8c0.2,0.6,0.2,1.1,0,1.7c-0.2,0.6-0.6,0.9-1.2,1.2c-0.6,0.2-1.1,0.2-1.7,0
	c-0.6-0.2-0.9-0.6-1.2-1.2l-5.2-12.7c-0.2-0.5-0.2-1,0-1.6c0.2-0.5,0.5-0.9,1-1.2l0.2-0.1l0.1,0l0.1,0l0,0l0.1,0h0h0l0,0h0
	c0.7-0.2,1.2-0.4,1.5-0.6c2.1-1.1,3.1-3.1,3.1-5.8c0-1.6-0.6-3-1.8-4.3c-1.2-1.3-2.7-2-4.4-2.1H132z M138.4,15.1
	c-0.6,0-1.2,0.2-1.6,0.6c-0.4,0.4-0.6,1-0.6,1.6v21.2c0,0.6,0.2,1.1,0.6,1.5c0.4,0.4,0.9,0.6,1.5,0.6c0.6,0,1.1-0.2,1.5-0.6
	c0.4-0.4,0.6-0.9,0.6-1.5V19.4h4.3c0.6,0,1.1-0.2,1.5-0.6c0.4-0.4,0.6-0.9,0.6-1.5c0-0.6-0.2-1.1-0.6-1.5c-0.4-0.4-0.9-0.6-1.5-0.6
	H138.4z M21.6,54.1c-2-2.7-4.2-4-6.4-4c-1.8,0-3.3,0.6-4.5,1.9c-1.2,1.2-1.9,2.8-1.9,4.5c0,1.3,0.4,2.5,1.1,3.5l6.8,7.7
	c0.4,0.4,0.6,0.9,0.6,1.5s-0.2,1.1-0.6,1.5c-0.4,0.4-0.9,0.6-1.5,0.6c-0.6,0-1.1-0.2-1.6-0.7l-6.9-7.8c-1.4-1.9-2.1-4-2.1-6.4
	c0-2.9,1.1-5.4,3.4-7.5c2.2-2.1,4.6-3.1,7.2-3.1c2.2,0,4.1,0.5,5.7,1.5c1.2,0.8,2.5,2,3.9,3.7c0.5,0.6,0.7,1.2,0.7,1.7
	c0,0.6-0.2,1.1-0.6,1.5c-0.4,0.4-0.9,0.6-1.5,0.6C22.6,55,22,54.7,21.6,54.1z M8.7,71.7c2,2.7,4.2,4,6.4,4c1.8,0,3.3-0.6,4.5-1.9
	c1.2-1.2,1.9-2.8,1.9-4.5c0-1.5-0.4-2.6-1.1-3.5L13.7,58c-0.4-0.4-0.6-0.9-0.6-1.5c0-0.6,0.2-1.1,0.6-1.5c0.4-0.4,0.9-0.6,1.5-0.6
	c0.6,0,1.2,0.2,1.6,0.7l6.9,7.8c1.4,1.6,2.1,3.8,2.1,6.4c0,2.9-1.1,5.4-3.4,7.5c-2.2,2.1-4.6,3.1-7.2,3.1c-2.2,0-4.1-0.5-5.7-1.5
	c-1.2-0.8-2.5-2-3.9-3.7c-0.5-0.6-0.7-1.2-0.7-1.7c0-0.6,0.2-1.1,0.6-1.5C5.9,71,6.4,70.8,7,70.8C7.7,70.8,8.3,71.1,8.7,71.7z
	 M35.8,50.1v27.7c0,0.6-0.2,1.1-0.6,1.5c-0.4,0.4-0.9,0.6-1.5,0.6c-0.6,0-1.1-0.2-1.5-0.6c-0.4-0.4-0.6-0.9-0.6-1.5V48
	c0-0.6,0.2-1.1,0.6-1.5c0.4-0.4,0.9-0.6,1.5-0.6h14.9c2.9,0,5.4,1.1,7.5,3.3c2.1,2.1,3.1,4.6,3.1,7.4c0,2.6-0.7,4.9-2.2,6.8
	c-1.4,1.9-3.3,3.1-5.6,3.7c-0.7,0.2-1.3,0.1-1.9-0.3c-0.6-0.4-0.9-1-0.9-1.7c0-1,0.5-1.7,1.4-2c1-0.3,1.5-0.5,1.8-0.7
	c2.1-1.1,3.1-3.1,3.1-5.8c0-1.6-0.6-3-1.8-4.3c-1.2-1.3-2.7-2-4.4-2.1H35.8z M42.2,54.4c-0.6,0-1.1,0.2-1.6,0.7
	c-0.4,0.4-0.6,0.9-0.6,1.6v21.2c0,0.6,0.2,1.1,0.6,1.5c0.4,0.4,0.9,0.6,1.5,0.6c0.6,0,1.1-0.2,1.5-0.6c0.4-0.4,0.6-0.9,0.6-1.5V58.7
	h4.3c0.6,0,1.1-0.2,1.5-0.6c0.4-0.4,0.6-0.9,0.6-1.5c0-0.6-0.2-1.1-0.6-1.5c-0.4-0.4-0.9-0.6-1.5-0.6H42.2z M95.9,76.8
	c-2.9-6.6-7.2-16.5-12.9-29.6c-0.4-0.9-1.1-1.3-2-1.3h-7.9c-0.9,0-1.6,0.4-2,1.3c-2.7,6.3-7,16.1-12.9,29.7
	c-0.3,0.8-0.2,1.5,0.2,2.1c0.4,0.6,1,1,1.7,1c1.1,0,2.6,0,4.7,0c2.1,0,3.6,0,4.7,0c1,0,1.7-0.5,2.1-1.4c0.3-0.6,0.7-1.6,1.3-2.9
	c1.8,0,4.6,0,8.2,0c0.6,1.3,1,2.3,1.3,2.9c0.4,0.9,1.1,1.4,2.1,1.4c1,0,2.5,0,4.7,0c2,0,3.6,0,4.7,0c0.9,0,1.5-0.4,1.9-1.1
	C96.2,78.2,96.2,77.5,95.9,76.8z M85.9,75.7c-0.8-1.9-1.5-3.3-1.9-4.3h-9.2c0.1-0.3,0.8-1.8,1.9-4.3H79c0.6,0,1.2-0.2,1.6-0.7
	c0.6-0.6,0.7-1.4,0.3-2.3c-0.5-1.2-1.1-2.6-1.8-4.2c-0.4-0.8-1-1.3-2-1.3c-1,0-1.6,0.4-2,1.4c-1.6,3.6-3.8,8.8-6.8,15.7h-4.8
	C66,70,69.7,61.5,74.6,50.1h5c1.2,2.8,3.1,7.1,5.5,12.8c2.5,5.7,4.3,9.9,5.6,12.8H85.9z M127.2,50.9c0.4,0.4,0.6,0.9,0.6,1.5
	c0,0.6-0.2,1.1-0.6,1.5c-0.4,0.4-0.9,0.6-1.5,0.6s-1.1-0.2-1.5-0.6c-2.5-2.5-5.5-3.7-9-3.7c-3.5,0-6.5,1.2-9,3.7
	c-2.5,2.5-3.7,5.5-3.7,9c0,3.5,1.2,6.5,3.7,9c2.5,2.5,5.5,3.7,9,3.7c3.5,0,6.5-1.2,9-3.7l0,0c0.4-0.5,1-0.7,1.6-0.7
	c0.6,0,1.1,0.2,1.5,0.6c0.4,0.4,0.6,0.9,0.6,1.5c0,0.9-0.4,1.5-1.1,1.9c-3.3,3.1-7.1,4.6-11.6,4.6c-4.7,0-8.7-1.7-12-5
	c-3.3-3.3-5-7.3-5-12s1.7-8.7,5-12c3.3-3.3,7.3-5,12-5C119.8,45.9,123.8,47.6,127.2,50.9z M121.2,65.9c0.4,0.4,0.6,0.9,0.6,1.5
	c0,0.6-0.2,1.1-0.6,1.5c-1.7,1.7-3.7,2.5-6,2.5c-2.3,0-4.3-0.8-6-2.5c-1.7-1.7-2.5-3.7-2.5-6s0.8-4.4,2.5-6c1.7-1.7,3.7-2.5,6-2.5
	c2.3,0,4.3,0.8,5.9,2.4l0.1,0.1c0.4,0.4,0.6,0.9,0.6,1.5c0,0.6-0.2,1.1-0.6,1.5c-0.4,0.4-0.9,0.6-1.5,0.6c-0.6,0-1.1-0.2-1.5-0.6
	l0,0l0,0c-0.8-0.8-1.8-1.2-2.9-1.2c-1.2,0-2.2,0.4-3,1.3c-0.8,0.8-1.2,1.8-1.2,3c0,1.2,0.4,2.2,1.2,3c0.8,0.8,1.8,1.3,3,1.3
	c1.1,0,2.1-0.4,2.9-1.2l0.1-0.1c0.4-0.4,0.9-0.6,1.5-0.6C120.3,65.3,120.8,65.5,121.2,65.9z M137.3,50.1v25.5h14.9
	c0.6,0,1.1,0.2,1.5,0.6c0.4,0.4,0.6,0.9,0.6,1.5c0,0.6-0.2,1.1-0.6,1.5c-0.4,0.4-0.9,0.6-1.5,0.6h-17c-0.6,0-1.1-0.2-1.5-0.6
	c-0.4-0.4-0.6-0.9-0.6-1.5V48c0-0.6,0.2-1.1,0.6-1.5c0.4-0.4,0.9-0.6,1.5-0.6h17c0.6,0,1.1,0.2,1.5,0.6c0.4,0.4,0.6,0.9,0.6,1.5
	c0,0.6-0.2,1.1-0.6,1.5c-0.4,0.4-0.9,0.6-1.5,0.6H137.3z M145.8,60.8c0,0.6-0.2,1.1-0.6,1.5c-0.4,0.4-0.9,0.6-1.5,0.6
	c-0.6,0-1.1-0.2-1.5-0.6c-0.4-0.4-0.6-0.9-0.6-1.5v-4.1c0-0.6,0.2-1.1,0.6-1.6c0.4-0.5,0.9-0.7,1.5-0.7h8.5c0.6,0,1.1,0.2,1.5,0.6
	c0.4,0.4,0.6,0.9,0.6,1.5c0,0.6-0.2,1.1-0.6,1.5c-0.4,0.4-0.9,0.6-1.5,0.6h-6.4V60.8z M150.1,65c0-0.6,0.2-1.1,0.6-1.5
	s0.9-0.6,1.5-0.6c0.6,0,1.1,0.2,1.5,0.6c0.4,0.4,0.6,0.9,0.6,1.5v4.1c0,0.6-0.2,1.1-0.6,1.6c-0.4,0.5-0.9,0.7-1.5,0.7h-8.5
	c-0.6,0-1.1-0.2-1.5-0.6c-0.4-0.4-0.6-0.9-0.6-1.5c0-0.6,0.2-1.1,0.6-1.5c0.4-0.4,0.9-0.6,1.5-0.6h6.4V65z M18.5,100.2
	c-0.2-1.1-0.6-2-1.4-2.6c-0.7-0.6-1.7-0.9-2.8-0.9c-0.5,0-1.1,0.1-1.7,0.3c-0.6,0.2-1.1,0.5-1.6,1c-0.5,0.5-0.9,1.2-1.2,2
	c-0.3,0.9-0.5,2-0.5,3.4c0,0.8,0.1,1.5,0.3,2.3c0.2,0.8,0.5,1.4,0.9,2c0.4,0.6,0.9,1.1,1.5,1.4c0.6,0.4,1.4,0.6,2.2,0.6
	c1.2,0,2.2-0.4,2.9-1.1c0.8-0.7,1.3-1.8,1.4-3.1h4.1c-0.4,2.4-1.3,4.2-2.7,5.5c-1.4,1.3-3.3,1.9-5.7,1.9c-1.4,0-2.7-0.2-3.8-0.7
	c-1.1-0.5-2-1.2-2.8-2c-0.8-0.8-1.3-1.8-1.7-3c-0.4-1.2-0.6-2.4-0.6-3.8c0-1.4,0.2-2.7,0.6-3.9c0.4-1.2,1-2.3,1.7-3.2
	c0.8-0.9,1.7-1.6,2.8-2.1c1.1-0.5,2.5-0.8,4-0.8c1.1,0,2.1,0.1,3,0.4c1,0.3,1.8,0.7,2.6,1.2c0.7,0.5,1.4,1.2,1.8,2.1
	c0.5,0.8,0.8,1.8,0.9,3H18.5z M33.8,112.9c-1.5,0-2.8-0.2-3.9-0.7c-1.2-0.5-2.1-1.2-2.9-2c-0.8-0.9-1.4-1.9-1.8-3.1
	c-0.4-1.2-0.6-2.5-0.6-3.9c0-1.4,0.2-2.7,0.6-3.9c0.4-1.2,1-2.2,1.8-3.1c0.8-0.9,1.8-1.5,2.9-2c1.2-0.5,2.5-0.7,3.9-0.7
	s2.8,0.2,3.9,0.7c1.2,0.5,2.1,1.2,2.9,2c0.8,0.9,1.4,1.9,1.8,3.1c0.4,1.2,0.6,2.5,0.6,3.9c0,1.4-0.2,2.7-0.6,3.9
	c-0.4,1.2-1,2.2-1.8,3.1c-0.8,0.9-1.8,1.5-2.9,2C36.6,112.7,35.3,112.9,33.8,112.9z M33.8,109.7c0.9,0,1.7-0.2,2.4-0.6
	c0.7-0.4,1.2-0.9,1.6-1.5c0.4-0.6,0.7-1.3,0.9-2.1c0.2-0.8,0.3-1.6,0.3-2.4c0-0.8-0.1-1.6-0.3-2.4c-0.2-0.8-0.5-1.5-0.9-2.1
	c-0.4-0.6-1-1.1-1.6-1.5c-0.7-0.4-1.4-0.6-2.4-0.6s-1.7,0.2-2.4,0.6c-0.7,0.4-1.2,0.9-1.6,1.5c-0.4,0.6-0.7,1.3-0.9,2.1
	c-0.2,0.8-0.3,1.6-0.3,2.4c0,0.8,0.1,1.6,0.3,2.4c0.2,0.8,0.5,1.5,0.9,2.1c0.4,0.6,1,1.1,1.6,1.5C32.1,109.5,32.9,109.7,33.8,109.7z
	 M46,87h4.1v25.4H46V87z M53.9,87H58v25.4h-4.1V87z M65.1,104.3c0,0.7,0.1,1.4,0.3,2.1c0.2,0.7,0.5,1.2,0.9,1.7
	c0.4,0.5,0.9,0.9,1.5,1.2c0.6,0.3,1.4,0.4,2.2,0.4c1.2,0,2.1-0.3,2.9-0.8c0.7-0.5,1.3-1.3,1.6-2.3h3.8c-0.2,1-0.6,1.9-1.1,2.7
	c-0.5,0.8-1.2,1.4-1.9,2c-0.7,0.5-1.6,0.9-2.5,1.2c-0.9,0.3-1.9,0.4-2.9,0.4c-1.4,0-2.7-0.2-3.8-0.7c-1.1-0.5-2.1-1.1-2.8-2
	c-0.8-0.9-1.4-1.9-1.7-3.1c-0.4-1.2-0.6-2.5-0.6-3.9c0-1.3,0.2-2.5,0.6-3.7c0.4-1.2,1-2.2,1.8-3.1c0.8-0.9,1.7-1.6,2.8-2.1
	c1.1-0.5,2.3-0.8,3.7-0.8c1.4,0,2.8,0.3,3.9,0.9c1.2,0.6,2.1,1.4,2.9,2.4c0.8,1,1.3,2.1,1.7,3.4c0.3,1.3,0.4,2.6,0.3,4H65.1z
	 M74.6,101.6c0-0.6-0.2-1.3-0.4-1.9c-0.2-0.6-0.5-1.1-0.9-1.6c-0.4-0.4-0.9-0.8-1.4-1.1s-1.2-0.4-1.9-0.4c-0.7,0-1.4,0.1-1.9,0.4
	c-0.6,0.2-1.1,0.6-1.5,1c-0.4,0.4-0.7,1-1,1.6c-0.2,0.6-0.4,1.2-0.4,1.9H74.6z M93.9,100.2c-0.2-1.1-0.6-2-1.4-2.6
	c-0.7-0.6-1.7-0.9-2.8-0.9c-0.5,0-1.1,0.1-1.7,0.3c-0.6,0.2-1.1,0.5-1.6,1c-0.5,0.5-0.9,1.2-1.2,2c-0.3,0.9-0.5,2-0.5,3.4
	c0,0.8,0.1,1.5,0.3,2.3c0.2,0.8,0.5,1.4,0.9,2c0.4,0.6,0.9,1.1,1.5,1.4c0.6,0.4,1.4,0.6,2.2,0.6c1.2,0,2.2-0.4,2.9-1.1
	c0.8-0.7,1.3-1.8,1.4-3.1h4.1c-0.4,2.4-1.3,4.2-2.7,5.5c-1.4,1.3-3.3,1.9-5.7,1.9c-1.4,0-2.7-0.2-3.8-0.7c-1.1-0.5-2-1.2-2.8-2
	c-0.8-0.8-1.3-1.8-1.7-3c-0.4-1.2-0.6-2.4-0.6-3.8c0-1.4,0.2-2.7,0.6-3.9c0.4-1.2,1-2.3,1.7-3.2c0.8-0.9,1.7-1.6,2.8-2.1
	c1.1-0.5,2.5-0.8,4-0.8c1.1,0,2.1,0.1,3,0.4s1.8,0.7,2.6,1.2c0.7,0.5,1.4,1.2,1.8,2.1s0.8,1.8,0.9,3H93.9z M99,94h3.1v-5.5h4.1V94
	h3.7v3h-3.7v9.8c0,0.4,0,0.8,0.1,1.1c0,0.3,0.1,0.6,0.2,0.8c0.1,0.2,0.3,0.4,0.6,0.5c0.3,0.1,0.6,0.2,1.1,0.2c0.3,0,0.6,0,0.9,0
	c0.3,0,0.6-0.1,0.9-0.1v3.1c-0.5,0-0.9,0.1-1.3,0.1c-0.4,0-0.9,0.1-1.3,0.1c-1.1,0-1.9-0.1-2.6-0.3c-0.7-0.2-1.2-0.5-1.5-0.9
	c-0.4-0.4-0.6-0.9-0.7-1.5c-0.1-0.6-0.2-1.3-0.2-2V97H99V94z M112.3,87h4.1v3.8h-4.1V87z M112.3,94h4.1v18.4h-4.1V94z M118.4,94h4.4
	l4.7,14.2h0.1l4.5-14.2h4.2l-6.6,18.4h-4.6L118.4,94z M140.7,104.3c0,0.7,0.1,1.4,0.3,2.1c0.2,0.7,0.5,1.2,0.9,1.7
	c0.4,0.5,0.9,0.9,1.5,1.2c0.6,0.3,1.4,0.4,2.2,0.4c1.2,0,2.1-0.3,2.9-0.8c0.7-0.5,1.3-1.3,1.6-2.3h3.8c-0.2,1-0.6,1.9-1.1,2.7
	c-0.5,0.8-1.2,1.4-1.9,2c-0.7,0.5-1.6,0.9-2.5,1.2c-0.9,0.3-1.9,0.4-2.9,0.4c-1.4,0-2.7-0.2-3.8-0.7c-1.1-0.5-2.1-1.1-2.8-2
	c-0.8-0.9-1.4-1.9-1.7-3.1c-0.4-1.2-0.6-2.5-0.6-3.9c0-1.3,0.2-2.5,0.6-3.7c0.4-1.2,1-2.2,1.8-3.1c0.8-0.9,1.7-1.6,2.8-2.1
	c1.1-0.5,2.3-0.8,3.7-0.8c1.4,0,2.8,0.3,3.9,0.9c1.2,0.6,2.1,1.4,2.9,2.4c0.8,1,1.3,2.1,1.7,3.4c0.3,1.3,0.4,2.6,0.3,4H140.7z
	 M150.2,101.6c0-0.6-0.2-1.3-0.4-1.9c-0.2-0.6-0.5-1.1-0.9-1.6c-0.4-0.4-0.9-0.8-1.4-1.1c-0.6-0.3-1.2-0.4-1.9-0.4
	c-0.7,0-1.4,0.1-1.9,0.4c-0.6,0.2-1.1,0.6-1.5,1c-0.4,0.4-0.7,1-1,1.6c-0.2,0.6-0.4,1.2-0.4,1.9H150.2z"/>
</svg>
